<svg width="100" height="100" viewBox="0 0 100 100" fill="none" xmlns="http://www.w3.org/2000/svg">
<rect width="100" height="100" fill="#64D5A1"/>
<rect x="18" y="21" width="22" height="5" rx="2.5" fill="#E9FEF4" fill-opacity="0.25"/>
<rect x="35" y="30" width="9" height="4" rx="2" fill="#E9FEF4" fill-opacity="0.25"/>
<rect x="13" y="34" width="9" height="4" rx="2" fill="#E9FEF4" fill-opacity="0.25"/>
<rect x="64" y="82" width="27" height="5" rx="2.5" fill="#E9FEF4" fill-opacity="0.25"/>
<rect x="78" y="72" width="9" height="4" rx="2" fill="#E9FEF4" fill-opacity="0.25"/>
<path d="M25 35C25 29.4772 29.4772 25 35 25H65C70.5228 25 75 29.4772 75 35V100H25V35Z" fill="#AE8A3E"/>
<path d="M25 37C25 31.4772 29.4772 27 35 27H65C70.5228 27 75 31.4772 75 37V100H25V37Z" fill="#FEE1A4"/>
<rect x="50" y="70" width="21" height="5" rx="2.5" fill="#AE8A3E" fill-opacity="0.25"/>
<rect x="34" y="42" width="12" height="4" rx="2" fill="#AE8A3E" fill-opacity="0.25"/>
<rect x="40" y="81" width="12" height="4" rx="2" fill="#AE8A3E" fill-opacity="0.25"/>
</svg>
