<svg width="100" height="100" viewBox="0 0 100 100" fill="none" xmlns="http://www.w3.org/2000/svg">
<g clip-path="url(#clip0)">
<rect width="100" height="100" fill="#64D5A1"/>
<rect x="18" y="21" width="22" height="5" rx="2.5" fill="#E9FEF4" fill-opacity="0.25"/>
<rect x="35" y="30" width="9" height="4" rx="2" fill="#E9FEF4" fill-opacity="0.25"/>
<rect x="13" y="34" width="9" height="4" rx="2" fill="#E9FEF4" fill-opacity="0.25"/>
<rect x="64" y="82" width="27" height="5" rx="2.5" fill="#E9FEF4" fill-opacity="0.25"/>
<rect x="78" y="72" width="9" height="4" rx="2" fill="#E9FEF4" fill-opacity="0.25"/>
<path d="M25 25H65C70.5228 25 75 29.4772 75 35V100H25V25Z" fill="#FEE1A4"/>
<path d="M65 25C70.5228 25 75 29.4772 75 35L75 75L-2.18557e-06 75L0 25L65 25Z" fill="#AE8A3E"/>
<path d="M65 27C70.5228 27 75 31.4772 75 37L75 77L-2.18557e-06 77L0 27L65 27Z" fill="#FEE1A4"/>
<rect x="44" y="47" width="21" height="5" rx="2.5" fill="#AE8A3E" fill-opacity="0.25"/>
<rect x="34" y="85" width="12" height="4" rx="2" fill="#AE8A3E" fill-opacity="0.25"/>
<rect x="55" y="56" width="12" height="4" rx="2" fill="#AE8A3E" fill-opacity="0.25"/>
</g>
<defs>
<clipPath id="clip0">
<rect width="100" height="100" fill="white"/>
</clipPath>
</defs>
</svg>
