<svg width="100" height="100" viewBox="0 0 100 100" fill="none" xmlns="http://www.w3.org/2000/svg">
<g clip-path="url(#clip0)">
<rect width="100" height="100" fill="#64D5A1"/>
<rect x="18" y="21" width="22" height="5" rx="2.5" fill="#E9FEF4" fill-opacity="0.25"/>
<rect x="35" y="30" width="9" height="4" rx="2" fill="#E9FEF4" fill-opacity="0.25"/>
<rect x="13" y="34" width="9" height="4" rx="2" fill="#E9FEF4" fill-opacity="0.25"/>
<rect x="64" y="82" width="27" height="5" rx="2.5" fill="#E9FEF4" fill-opacity="0.25"/>
<rect x="78" y="72" width="9" height="4" rx="2" fill="#E9FEF4" fill-opacity="0.25"/>
<rect x="100" y="25" width="50" height="100" transform="rotate(90 100 25)" fill="#AE8A3E"/>
<rect x="100" y="27" width="50" height="100" transform="rotate(90 100 27)" fill="#FEE1A4"/>
<rect x="16" y="39" width="12" height="4" rx="2" fill="#AE8A3E" fill-opacity="0.25"/>
<rect x="55" y="57" width="12" height="4" rx="2" fill="#AE8A3E" fill-opacity="0.25"/>
<rect x="61" y="65" width="21" height="5" rx="2.5" fill="#AE8A3E" fill-opacity="0.25"/>
</g>
<defs>
<clipPath id="clip0">
<rect width="100" height="100" fill="white"/>
</clipPath>
</defs>
</svg>
