<svg width="100" height="100" viewBox="0 0 100 100" fill="none" xmlns="http://www.w3.org/2000/svg">
<g clip-path="url(#clip0)">
<rect width="100" height="100" fill="#64D5A1"/>
<rect x="18" y="21" width="22" height="5" rx="2.5" fill="#E9FEF4" fill-opacity="0.25"/>
<rect x="35" y="30" width="9" height="4" rx="2" fill="#E9FEF4" fill-opacity="0.25"/>
<rect x="13" y="34" width="9" height="4" rx="2" fill="#E9FEF4" fill-opacity="0.25"/>
<rect x="64" y="82" width="27" height="5" rx="2.5" fill="#E9FEF4" fill-opacity="0.25"/>
<rect x="78" y="72" width="9" height="4" rx="2" fill="#E9FEF4" fill-opacity="0.25"/>
<path d="M75 25L75 65C75 70.5229 70.5228 75 65 75L-2.18557e-06 75L0 25L75 25Z" fill="#AE8A3E"/>
<path d="M25 0H75V67C75 72.5229 70.5228 77 65 77H25V0Z" fill="#FEE1A4"/>
<path d="M75 27L75 67C75 72.5229 70.5228 77 65 77L-2.18557e-06 77L0 27L75 27Z" fill="#FEE1A4"/>
<rect x="10" y="63" width="21" height="5" rx="2.5" fill="#AE8A3E" fill-opacity="0.25"/>
<rect x="55" y="13" width="12" height="4" rx="2" fill="#AE8A3E" fill-opacity="0.25"/>
<rect x="25" y="55" width="12" height="4" rx="2" fill="#AE8A3E" fill-opacity="0.25"/>
</g>
<defs>
<clipPath id="clip0">
<rect width="100" height="100" fill="white"/>
</clipPath>
</defs>
</svg>
