<svg width="100" height="100" viewBox="0 0 100 100" fill="none" xmlns="http://www.w3.org/2000/svg">
<rect width="100" height="100" fill="#64D5A1"/>
<rect x="18" y="21" width="22" height="5" rx="2.5" fill="#E9FEF4" fill-opacity="0.25"/>
<rect x="35" y="30" width="9" height="4" rx="2" fill="#E9FEF4" fill-opacity="0.25"/>
<rect x="13" y="34" width="9" height="4" rx="2" fill="#E9FEF4" fill-opacity="0.25"/>
<rect x="64" y="82" width="27" height="5" rx="2.5" fill="#E9FEF4" fill-opacity="0.25"/>
<rect x="78" y="72" width="9" height="4" rx="2" fill="#E9FEF4" fill-opacity="0.25"/>
<path d="M100 25L100 75L35 75C29.4771 75 25 70.5228 25 65L25 25L100 25Z" fill="#AE8A3E"/>
<path d="M25 0H75V77H35C29.4772 77 25 72.5229 25 67V0Z" fill="#FEE1A4"/>
<path d="M100 27L100 77L35 77C29.4771 77 25 72.5228 25 67L25 27L100 27Z" fill="#FEE1A4"/>
<rect x="46" y="10" width="21" height="5" rx="2.5" fill="#AE8A3E" fill-opacity="0.25"/>
<rect x="34" y="58" width="12" height="4" rx="2" fill="#AE8A3E" fill-opacity="0.25"/>
<rect x="45" y="50" width="12" height="4" rx="2" fill="#AE8A3E" fill-opacity="0.25"/>
</svg>
