<svg width="100" height="100" viewBox="0 0 100 100" fill="none" xmlns="http://www.w3.org/2000/svg">
<rect width="100" height="100" fill="#64D5A1"/>
<rect x="18" y="21" width="22" height="5" rx="2.5" fill="#E9FEF4" fill-opacity="0.25"/>
<rect x="35" y="30" width="9" height="4" rx="2" fill="#E9FEF4" fill-opacity="0.25"/>
<rect x="13" y="34" width="9" height="4" rx="2" fill="#E9FEF4" fill-opacity="0.25"/>
<rect x="64" y="82" width="27" height="5" rx="2.5" fill="#E9FEF4" fill-opacity="0.25"/>
<rect x="78" y="72" width="9" height="4" rx="2" fill="#E9FEF4" fill-opacity="0.25"/>
<rect x="5" y="6" width="90" height="90" rx="5" fill="#D7B46B"/>
<rect x="5" y="6" width="90" height="70" rx="4" fill="#FEECC5" fill-opacity="0.25"/>
<rect x="9" y="10" width="82" height="62" rx="4" fill="#64D5A1"/>
<rect x="9" y="10" width="82" height="62" rx="4" fill="#AE8A3E" fill-opacity="0.25"/>
<rect x="8" y="80" width="25" height="3" rx="1.5" fill="#AE8A3E" fill-opacity="0.25"/>
<rect x="16" y="85" width="29" height="4" rx="2" fill="#AE8A3E" fill-opacity="0.5"/>
<rect x="48" y="85" width="12" height="4" rx="2" fill="#AE8A3E" fill-opacity="0.25"/>
<rect x="63" y="85" width="17" height="4" rx="2" fill="#AE8A3E" fill-opacity="0.5"/>
<rect x="83" y="85" width="10" height="4" rx="2" fill="#AE8A3E" fill-opacity="0.25"/>
<rect x="41" y="91" width="16" height="3" rx="1.5" fill="#AE8A3E" fill-opacity="0.5"/>
<rect x="60" y="91" width="30" height="3" rx="1.5" fill="#AE8A3E" fill-opacity="0.5"/>
<rect x="7" y="85" width="6" height="4" rx="2" fill="#AE8A3E" fill-opacity="0.5"/>
<rect x="10" y="91" width="28" height="3" rx="1.5" fill="#AE8A3E" fill-opacity="0.25"/>
<rect x="36" y="80" width="15" height="3" rx="1.5" fill="#AE8A3E" fill-opacity="0.5"/>
<rect x="54" y="80" width="29" height="3" rx="1.5" fill="#AE8A3E" fill-opacity="0.5"/>
<rect x="86" y="80" width="5" height="3" rx="1.5" fill="#AE8A3E" fill-opacity="0.5"/>
<rect x="18" y="62" width="30" height="5" rx="2.5" fill="#E9FEF4" fill-opacity="0.25"/>
<rect x="23" y="53" width="9" height="4" rx="2" fill="#E9FEF4" fill-opacity="0.25"/>
<rect x="57" y="29" width="25" height="5" rx="2.5" fill="#E9FEF4" fill-opacity="0.25"/>
<rect x="77" y="20" width="9" height="4" rx="2" fill="#E9FEF4" fill-opacity="0.25"/>
<rect x="52" y="15" width="9" height="4" rx="2" fill="#E9FEF4" fill-opacity="0.25"/>
</svg>
