<svg width="100" height="100" viewBox="0 0 100 100" fill="none" xmlns="http://www.w3.org/2000/svg">
<path fill-rule="evenodd" clip-rule="evenodd" d="M53.2162 92.195C60.3753 81.2881 77 54.701 77 43C77 28.0883 64.9117 16 50 16C35.0883 16 23 28.0883 23 43C23 54.701 39.6247 81.2881 46.7838 92.195C48.3192 94.5341 51.6808 94.5341 53.2162 92.195ZM50 50.5C54.1421 50.5 57.5 47.1421 57.5 43C57.5 38.8579 54.1421 35.5 50 35.5C45.8579 35.5 42.5 38.8579 42.5 43C42.5 47.1421 45.8579 50.5 50 50.5Z" fill="#FC497C"/>
</svg>
