<svg width="100" height="100" viewBox="0 0 100 100" fill="none" xmlns="http://www.w3.org/2000/svg">
<rect x="36" y="36" width="28" height="28" rx="14" fill="#AE8A3E"/>
<rect x="36" y="50" width="28" height="2" fill="#AE8A3E"/>
<rect x="36" y="38" width="28" height="28" rx="14" fill="#D7B46B"/>
<circle cx="50" cy="52" r="10.5" fill="#D7B46B" stroke="#AE8A3E"/>
<path d="M48.912 55.869C48.4967 55.8083 48.1117 55.6847 47.757 55.498C47.4023 55.3067 47.0943 55.057 46.833 54.749C46.5717 54.4363 46.3663 54.07 46.217 53.65C46.0723 53.2253 46 52.7493 46 52.222C46 51.7133 46.077 51.2397 46.231 50.801C46.385 50.3577 46.6113 49.9727 46.91 49.646C47.2133 49.3193 47.5843 49.058 48.023 48.862C48.4663 48.666 48.9727 48.5563 49.542 48.533L49.64 47.434C49.6493 47.3267 49.696 47.2287 49.78 47.14C49.864 47.0467 49.9737 47 50.109 47H50.746L50.606 48.603C50.9747 48.6683 51.3083 48.7803 51.607 48.939C51.9057 49.093 52.181 49.2867 52.433 49.52L51.985 50.129C51.9383 50.1943 51.8917 50.2433 51.845 50.276C51.7983 50.3087 51.7283 50.325 51.635 50.325C51.5697 50.325 51.502 50.311 51.432 50.283C51.362 50.2503 51.2803 50.2107 51.187 50.164C51.0983 50.1173 50.998 50.0707 50.886 50.024C50.774 49.9773 50.6433 49.9353 50.494 49.898L50.088 54.609C50.3353 54.5857 50.5407 54.5413 50.704 54.476C50.872 54.406 51.0143 54.336 51.131 54.266C51.2523 54.196 51.3573 54.133 51.446 54.077C51.5347 54.021 51.6257 53.993 51.719 53.993C51.859 53.993 51.9663 54.042 52.041 54.14L52.517 54.756C52.3537 54.9473 52.174 55.1107 51.978 55.246C51.782 55.3813 51.5767 55.4957 51.362 55.589C51.1473 55.6777 50.9233 55.7477 50.69 55.799C50.4567 55.8457 50.2187 55.8783 49.976 55.897L49.892 56.926C49.8827 57.038 49.836 57.1383 49.752 57.227C49.668 57.3203 49.5583 57.367 49.423 57.367H48.786L48.912 55.869ZM47.708 52.222C47.708 52.8473 47.8223 53.3537 48.051 53.741C48.2797 54.1237 48.6063 54.3827 49.031 54.518L49.43 49.849C48.842 49.9237 48.408 50.1663 48.128 50.577C47.848 50.9877 47.708 51.536 47.708 52.222Z" fill="#FEE1A4"/>
</svg>
