<svg width="80" height="80" viewBox="0 0 80 80" fill="none" xmlns="http://www.w3.org/2000/svg">
<path d="M80 52H60C55.5817 52 52 55.5817 52 60V80H72C76.4183 80 80 76.4183 80 72V52Z" fill="#D7B46B"/>
<path d="M36 52H0V72C0 76.4183 3.58172 80 8 80H44V60C44 55.5817 40.4183 52 36 52Z" fill="#FD739B"/>
<path d="M72 0H52V36C52 40.4183 55.5817 44 60 44H80V8C80 3.58172 76.4183 0 72 0Z" fill="#64D5A1"/>
<path d="M44 0H8C3.58172 0 0 3.58172 0 8V44H36C40.4183 44 44 40.4183 44 36V0Z" fill="#54A6BF"/>
</svg>
