<svg width="100" height="100" viewBox="0 0 100 100" fill="none" xmlns="http://www.w3.org/2000/svg">
<rect width="100" height="100" fill="#64D5A1"/>
<rect x="5" y="5" width="90" height="90" rx="10" fill="#AE8A3E"/>
<rect x="5" y="7" width="90" height="88" rx="10" fill="#FEE1A4"/>
<rect x="18" y="21" width="22" height="5" rx="2.5" fill="#EACB8B"/>
<rect x="35" y="30" width="9" height="4" rx="2" fill="#EACB8B"/>
<rect x="13" y="34" width="9" height="4" rx="2" fill="#EACB8B"/>
<rect x="64" y="82" width="27" height="5" rx="2.5" fill="#EACB8B"/>
<rect x="78" y="72" width="9" height="4" rx="2" fill="#EACB8B"/>
<path fill-rule="evenodd" clip-rule="evenodd" d="M66.9706 42.9705V33.0294H57.0295L50 25.9999L42.9705 33.0294L33.0294 33.0294L33.0294 42.9705L26 49.9999L33.0294 57.0294V66.9705H42.9706L50 73.9999L57.0294 66.9705H66.9706V57.0294L74 49.9999L66.9706 42.9705Z" fill="#358BA6"/>
<path fill-rule="evenodd" clip-rule="evenodd" d="M63.435 43.636L63.435 36.5649L55.565 36.5649L50 30.9999L44.435 36.5649H36.565V43.636L41.5147 38.6862L58.4853 38.6862L63.435 43.636Z" fill="#54A6BF"/>
<path fill-rule="evenodd" clip-rule="evenodd" d="M36.565 56.3639L36.565 63.435L44.435 63.435L50 69L55.565 63.435L63.435 63.435L63.435 56.3639L58.4853 61.3136L41.5147 61.3136L36.565 56.3639Z" fill="#1D7896"/>
</svg>
